<svg xmlns="http://www.w3.org/2000/svg" width="24" height="24" fill="currentColor" viewBox="0 0 24 24">
  <path fill-rule="evenodd" d="M5.634 4.227a1 1 0 00-1.268 1.546l15 12.292a1 1 0 001.268-1.547L17 13.54V5.135a1 1 0 00-1.64-.768l-4.082 3.401a1 1 0 01-.64.232h-.4L5.635 4.227zm6.534 5.354L15 11.9v-4.63l-2.441 2.034a2.992 2.992 0 01-.391.276zM6 15V9.293l2 1.65V14h2.638a3 3 0 011.748.562l1.234 1.018L15 16.73v-.012l2 1.65v.497a1 1 0 01-1.64.768l-4.082-3.401a1 1 0 00-.64-.232H7a1 1 0 01-1-1z" clip-rule="evenodd"/>
</svg>
