<svg xmlns="http://www.w3.org/2000/svg" width="24" height="24" fill="currentColor" viewBox="0 0 24 24">
  <path fill-rule="evenodd" d="M18.735 19.463c-.404-.404-.38-1.063 0-1.49A8.981 8.981 0 0021 12a8.983 8.983 0 00-2.499-6.225c-.406-.423-.445-1.103-.03-1.518.365-.365.951-.392 1.316-.028A10.975 10.975 0 0123 12c0 2.882-1.108 5.504-2.92 7.466-.361.39-.97.372-1.345-.003zm-3.507-3.507c-.417-.417-.36-1.105-.01-1.58A3.994 3.994 0 0016 12c0-.996-.364-1.907-.967-2.607-.403-.47-.496-1.202-.058-1.64.336-.336.873-.382 1.214-.05A5.993 5.993 0 0118 12c0 1.52-.565 2.907-1.496 3.964-.335.38-.917.351-1.276-.008zM5.638 14H3v-4h2.638a3 3 0 001.92-.695L10 7.27v9.46l-2.441-2.035A3 3 0 005.638 14zM1 15V9a1 1 0 011-1h3.638a1 1 0 00.64-.232l4.082-3.401a1 1 0 011.64.768v13.73a1 1 0 01-1.64.768l-4.082-3.401a1 1 0 00-.64-.232H2a1 1 0 01-1-1z" clip-rule="evenodd"/>
</svg>
