<svg xmlns="http://www.w3.org/2000/svg" width="24" height="24" fill="currentColor" viewBox="0 0 24 24">
  <path fill-rule="evenodd" d="M7.638 14H5v-4h2.638a3 3 0 001.92-.695L12 7.27v9.46l-2.441-2.035A3 3 0 007.638 14zM3 15V9a1 1 0 011-1h3.638a1 1 0 00.64-.232l4.082-3.401a1 1 0 011.64.768v13.73a1 1 0 01-1.64.768l-4.082-3.401a1 1 0 00-.64-.232H4a1 1 0 01-1-1zm14.228.956c-.417-.417-.36-1.105-.01-1.58A3.994 3.994 0 0018 12c0-.996-.364-1.907-.967-2.607-.403-.47-.496-1.202-.058-1.64.336-.336.873-.382 1.214-.05A5.993 5.993 0 0120 12c0 1.52-.565 2.907-1.496 3.964-.335.38-.917.351-1.276-.008z" clip-rule="evenodd"/>
</svg>
